<svg xmlns="http://www.w3.org/2000/svg" viewBox="0 0 64 80" width="64" height="80" fill="none">
    <path
        fill-rule="evenodd"
        clip-rule="evenodd"
        d="M35,50a3,3,0,1,1-3-3A3.00879,3.00879,0,0,1,35,50ZM49.85,39.97a3.00955,3.00955,0,0,1,.78,2.29L48.91,62H15.09L13.37,42.26A3.00023,3.00023,0,0,1,16.36,39H47.64A2.998,2.998,0,0,1,49.85,39.97ZM37,50a5,5,0,1,0-5,5A5.00181,5.00181,0,0,0,37,50ZM12.68,38.62A5.00524,5.00524,0,0,1,16.36,37h1.65a25.581,25.581,0,0,1-3.58-6.06l-2.29.72A9.01876,9.01876,0,0,0,6.03,38.34L2.1,56.41a5.34024,5.34024,0,0,0-.1.98A4.61775,4.61775,0,0,0,6.61,62h6.47l-1.7-19.57A4.99676,4.99676,0,0,1,12.68,38.62ZM61.9,56.41,57.97,38.34A9.01876,9.01876,0,0,0,51.86,31.66l-2.29-.72A25.581,25.581,0,0,1,45.99,37h1.65a5.00466,5.00466,0,0,1,4.98,5.43L50.92,62h6.47A4.61775,4.61775,0,0,0,62,57.39,5.34024,5.34024,0,0,0,61.9,56.41ZM32,33a9.01353,9.01353,0,0,0,9-9,8.73979,8.73979,0,0,0-.18-1.78,32.493,32.493,0,0,0-17.64,0A8.73979,8.73979,0,0,0,23,24,9.01353,9.01353,0,0,0,32,33Zm16.98-9.85C48.54,13.6,40.74,2,32,2S15.46,13.6,15.02,23.15A39.04183,39.04183,0,0,1,32,19,39.04183,39.04183,0,0,1,48.98,23.15ZM15.07,25.38c.47,5.19,3.52,9.38,5.52,11.62H43.41c2-2.24,5.05-6.43,5.52-11.62a41.29234,41.29234,0,0,0-5.99-2.53,11,11,0,1,1-21.88,0A41.29234,41.29234,0,0,0,15.07,25.38Z"
        fill="black"
    />
</svg>
